2.2Hz3min_grf.mot
version=1
nRows=12
nColumns 19
inDegrees=yes
endheader
time	1_ground_force_vx	1_ground_force_vy	1_ground_force_vz	1_ground_force_px	1_ground_force_py	1_ground_force_pz	1_ground_torque_x	1_ground_torque_y	1_ground_torque_z	2_ground_force_vx	2_ground_force_vy	2_ground_force_vz	2_ground_force_px	2_ground_force_py	2_ground_force_pz	2_ground_torque_x	2_ground_torque_y	2_ground_torque_z
            0.005000	            0.229035	            0.360772	           -0.044879	           -0.133323	            0.006612	           -0.491722	            0.020471	            0.009432	           -0.009048	           -0.282531	            0.368119	           -0.233207	           -0.230798	            0.005554	           -0.670606	           -0.075269	            0.028288	           -0.056417
            0.005500	            0.092288	           -0.181231	            0.228279	           -0.133323	            0.006612	           -0.491722	            0.027888	            0.027786	            0.003966	            0.049406	           -0.735587	           -0.237289	           -0.230798	            0.005554	           -0.670606	           -0.131514	           -0.000340	           -0.037644
            0.006000	            0.000114	           -0.000197	            0.045856	           -0.133323	            0.006612	           -0.491722	           -0.058555	            0.018961	           -0.112562	            0.283634	           -0.734574	           -0.284316	           -0.230798	            0.005554	           -0.670606	           -0.075364	            0.065763	            0.037968
            0.006500	            0.229607	           -0.901677	            0.087278	           -0.133323	            0.006612	           -0.491722	            0.071641	            0.000364	           -0.046765	           -0.045041	           -0.551108	           -0.424304	           -0.230798	            0.005554	           -0.670606	           -0.075329	            0.047127	           -0.037500
            0.007000	           -0.045598	           -0.721268	            0.042878	           -0.133323	            0.006612	           -0.491722	            0.092085	           -0.008762	           -0.114984	           -0.186879	           -0.183653	           -0.329074	           -0.230798	            0.005554	           -0.670606	           -0.075140	           -0.009455	           -0.075403
            0.007500	            0.137496	            0.180292	            0.000432	           -0.133323	            0.006612	           -0.491722	            0.093672	           -0.036731	           -0.032128	           -0.094549	            0.185316	           -0.421656	           -0.230798	            0.005554	           -0.670606	           -0.112678	           -0.009860	            0.000014
            0.008000	            0.320787	            0.000259	           -0.046652	           -0.133323	            0.006612	           -0.491722	            0.058367	           -0.083114	            0.031980	           -0.046309	           -0.183313	           -0.282206	           -0.230798	            0.005554	           -0.670606	           -0.056628	            0.066234	           -0.075141
            0.008500	            0.229329	           -0.000152	            0.045287	           -0.133323	            0.006612	           -0.491722	            0.185851	           -0.083128	            0.027754	           -0.092556	           -0.367129	           -0.423627	           -0.230798	            0.005554	           -0.670606	           -0.075379	            0.056714	           -0.075166
            0.009000	            1.007561	            4.146699	           -0.076437	           -0.133323	            0.006612	           -0.491722	            0.865953	           -0.324664	            0.452873	           -0.044877	           -0.552447	           -0.048879	           -0.230798	            0.005554	           -0.670606	           -0.169086	            0.008708	            0.037806
            0.009500	            3.756318	           12.259775	           -0.186048	           -0.133323	            0.006612	           -0.491722	           -0.034952	           -0.114077	            0.001731	           -0.188791	            0.368122	           -0.139390	           -0.230798	            0.005554	           -0.670606	           -0.150369	            0.027681	            0.037866
            0.010000	            7.240153	           21.631707	            0.441626	           -0.160879	            0.006597	           -0.489422	           -0.107042	           -0.319815	           -0.006529	            0.280332	            0.186000	           -0.234103	           -0.230798	            0.005554	           -0.670606	           -0.188161	            0.084396	            0.000383
            0.010500	           10.589162	           29.917694	            2.073834	           -0.191190	            0.006524	           -0.473747	           -0.148914	           -0.420729	           -0.029164	            1.115696	            2.398490	           -0.132721	           -0.230798	            0.005554	           -0.670606	           -0.620354	            0.138947	            0.170421
